<svg width="106" height="93" viewBox="0 0 106 93" fill="none" xmlns="http://www.w3.org/2000/svg">
<path d="M14.92 91.3379L76.104 1.73788H91.336L30.152 91.3379H14.92ZM22.728 50.1219C18.376 50.1219 14.536 49.1406 11.208 47.1779C7.88 45.1299 5.23467 42.2712 3.272 38.6019C1.39467 34.8472 0.456 30.4526 0.456 25.4179C0.456 20.3832 1.39467 16.0312 3.272 12.3619C5.23467 8.69255 7.88 5.83389 11.208 3.78589C14.536 1.73789 18.376 0.71389 22.728 0.71389C27.08 0.71389 30.92 1.73789 34.248 3.78589C37.576 5.83389 40.1787 8.69255 42.056 12.3619C43.9333 16.0312 44.872 20.3832 44.872 25.4179C44.872 30.4526 43.9333 34.8472 42.056 38.6019C40.1787 42.2712 37.576 45.1299 34.248 47.1779C30.92 49.1406 27.08 50.1219 22.728 50.1219ZM22.728 39.6259C25.544 39.6259 27.8053 38.4739 29.512 36.1699C31.2187 33.7806 32.072 30.1966 32.072 25.4179C32.072 20.6392 31.2187 17.0979 29.512 14.7939C27.8053 12.4046 25.544 11.2099 22.728 11.2099C19.9973 11.2099 17.736 12.4046 15.944 14.7939C14.2373 17.0979 13.384 20.6392 13.384 25.4179C13.384 30.1112 14.2373 33.6526 15.944 36.0419C17.736 38.4312 19.9973 39.6259 22.728 39.6259ZM83.528 92.3619C79.2613 92.3619 75.4213 91.3806 72.008 89.4179C68.68 87.3699 66.0773 84.5112 64.2 80.8419C62.3227 77.0872 61.384 72.6926 61.384 67.6579C61.384 62.6232 62.3227 58.2712 64.2 54.6019C66.0773 50.9326 68.68 48.0739 72.008 46.0259C75.4213 43.9779 79.2613 42.9539 83.528 42.9539C87.9653 42.9539 91.848 43.9779 95.176 46.0259C98.504 48.0739 101.107 50.9326 102.984 54.6019C104.861 58.2712 105.8 62.6232 105.8 67.6579C105.8 72.6926 104.861 77.0872 102.984 80.8419C101.107 84.5112 98.504 87.3699 95.176 89.4179C91.848 91.3806 87.9653 92.3619 83.528 92.3619ZM83.528 81.8659C86.344 81.8659 88.6053 80.7139 90.312 78.4099C92.0187 76.0206 92.872 72.4366 92.872 67.6579C92.872 62.9646 92.0187 59.4232 90.312 57.0339C88.6053 54.6446 86.344 53.4499 83.528 53.4499C80.7973 53.4499 78.536 54.6446 76.744 57.0339C75.0373 59.3379 74.184 62.8792 74.184 67.6579C74.184 72.4366 75.0373 76.0206 76.744 78.4099C78.536 80.7139 80.7973 81.8659 83.528 81.8659Z" fill="#AC1A3C"/>
</svg>
